<?xml version="1.0" encoding="UTF-8" standalone="no"?>
<!DOCTYPE svg PUBLIC "-//W3C//DTD SVG 1.1//EN" "http://www.w3.org/Graphics/SVG/1.1/DTD/svg11.dtd">
<svg width="100%" height="100%" viewBox="0 0 876 215" version="1.1" xmlns="http://www.w3.org/2000/svg" xmlns:xlink="http://www.w3.org/1999/xlink" xml:space="preserve" xmlns:serif="http://www.serif.com/" style="fill-rule:evenodd;clip-rule:evenodd;stroke-linejoin:round;stroke-miterlimit:2;">
    <g id="Artboard2" transform="matrix(1.0188,0,0,1,100.008,246.501)">
        <rect x="-98.163" y="-246.501" width="859.368" height="214.558" style="fill:none;"/>
        <g transform="matrix(0.414116,0,0,0.421902,8.51298,-90.847)">
            <g transform="matrix(1,0,0,1,-181.336,-368.376)">
                <path d="M132.149,350.888C140.893,367.47 142.486,384.466 131.582,419.179C154.085,413.445 189.371,383.514 202.066,353.852L361.583,353.852C393.352,353.852 419.144,328.06 419.144,296.291L419.144,150.382C419.144,118.613 393.352,92.821 361.583,92.821L150.417,92.821C118.648,92.821 92.856,118.613 92.856,150.382L92.856,296.291C92.856,321.674 109.322,343.242 132.149,350.888Z" style="fill:rgb(48,48,48);"/>
                <clipPath id="_clip1">
                    <path d="M132.149,350.888C140.893,367.47 142.486,384.466 131.582,419.179C154.085,413.445 189.371,383.514 202.066,353.852L361.583,353.852C393.352,353.852 419.144,328.06 419.144,296.291L419.144,150.382C419.144,118.613 393.352,92.821 361.583,92.821L150.417,92.821C118.648,92.821 92.856,118.613 92.856,150.382L92.856,296.291C92.856,321.674 109.322,343.242 132.149,350.888Z"/>
                </clipPath>
                <g clip-path="url(#_clip1)">
                    <g transform="matrix(4.07928,0,0,4.07928,52.0361,23.4889)">
                        <g transform="matrix(1.14267,0,0,1.14267,-7.13346,-8.14249)">
                            <path d="M30.861,58.034C30.48,58.479 30.392,59.105 30.637,59.637C30.882,60.169 31.415,60.51 32,60.51L68,60.5C68.586,60.5 69.118,60.159 69.363,59.627C69.608,59.094 69.52,58.469 69.139,58.024L51.139,37.024C50.854,36.691 50.438,36.5 50,36.5C49.562,36.5 49.146,36.692 48.861,37.024L30.861,58.034ZM35.261,57.509L50,40.305C50,40.305 64.739,57.501 64.739,57.501L35.261,57.509Z" style="fill:white;"/>
                        </g>
                        <g transform="matrix(1.208,0,0,1.208,-17.9507,1.31688)">
                            <circle cx="39.224" cy="48.017" r="5.676" style="fill:white;"/>
                        </g>
                        <g transform="matrix(1.208,0,0,1.208,23.1854,1.31688)">
                            <circle cx="39.224" cy="48.017" r="5.676" style="fill:white;"/>
                        </g>
                        <g transform="matrix(1.208,0,0,1.208,2.61733,-22.726)">
                            <circle cx="39.224" cy="48.017" r="5.676" style="fill:white;"/>
                        </g>
                    </g>
                </g>
            </g>
            <g transform="matrix(1,0,0,1,-181.336,-368.376)">
                <path d="M121.881,361.925C127.091,374.626 126.439,388.838 118.226,414.983C116.704,419.827 117.924,425.115 121.415,428.803C124.905,432.49 130.119,433.999 135.039,432.745C158.29,426.821 193.907,398.314 210.763,367.852C210.763,367.852 361.583,367.852 361.583,367.852C401.079,367.852 433.144,335.787 433.144,296.291C433.144,296.291 433.144,150.382 433.144,150.382C433.144,110.887 401.079,78.821 361.583,78.821C361.583,78.821 150.417,78.821 150.417,78.821C110.921,78.821 78.856,110.887 78.856,150.382L78.856,296.291C78.856,325.644 96.568,350.893 121.881,361.924L121.881,361.925ZM144.532,344.357C142.853,341.172 140.01,338.756 136.595,337.612C119.318,331.826 106.856,315.502 106.856,296.291C106.856,296.291 106.856,150.382 106.856,150.382C106.856,126.34 126.375,106.821 150.417,106.821L361.583,106.821C385.625,106.821 405.144,126.34 405.144,150.382L405.144,296.291C405.144,320.333 385.625,339.852 361.583,339.852L202.066,339.852C196.463,339.852 191.4,343.192 189.195,348.343C182.142,364.824 167.218,381.546 152.247,392.793C155.228,371.704 151.68,357.91 144.532,344.357Z" style="fill:rgb(48,48,48);"/>
            </g>
        </g>
        <g transform="matrix(0.829985,0,0,0.845589,-37.1653,-236.658)">
            <text x="217.893px" y="169.861px" style="font-family:'Gabarito-Regular', 'Gabarito';font-size:158.357px;fill:rgb(48,48,48);">Mo<tspan x="446.086px " y="169.861px ">k</tspan>i SDK</text>
        </g>
    </g>
</svg>
