<?xml version="1.0" encoding="UTF-8" standalone="no"?>
<!DOCTYPE svg PUBLIC "-//W3C//DTD SVG 1.1//EN" "http://www.w3.org/Graphics/SVG/1.1/DTD/svg11.dtd">
<svg width="100%" height="100%" viewBox="0 0 876 215" version="1.1" xmlns="http://www.w3.org/2000/svg" xmlns:xlink="http://www.w3.org/1999/xlink" xml:space="preserve" xmlns:serif="http://www.serif.com/" style="fill-rule:evenodd;clip-rule:evenodd;stroke-linejoin:round;stroke-miterlimit:2;">
    <g id="Artboard2" transform="matrix(1.0188,0,0,1,100.008,246.501)">
        <rect x="-98.163" y="-246.501" width="859.368" height="214.558" style="fill:none;"/>
        <g transform="matrix(0.414116,0,0,0.421902,8.51298,-90.847)">
            <g transform="matrix(1,0,0,1,-181.336,-368.376)">
                <path d="M132.149,350.888C140.893,367.47 142.486,384.466 131.582,419.179C154.085,413.445 189.371,383.514 202.066,353.852L361.583,353.852C393.352,353.852 419.144,328.06 419.144,296.291L419.144,150.382C419.144,118.613 393.352,92.821 361.583,92.821L150.417,92.821C118.648,92.821 92.856,118.613 92.856,150.382L92.856,296.291C92.856,321.674 109.322,343.242 132.149,350.888Z" style="fill:rgb(48,48,48);"/>
                <clipPath id="_clip1">
                    <path d="M132.149,350.888C140.893,367.47 142.486,384.466 131.582,419.179C154.085,413.445 189.371,383.514 202.066,353.852L361.583,353.852C393.352,353.852 419.144,328.06 419.144,296.291L419.144,150.382C419.144,118.613 393.352,92.821 361.583,92.821L150.417,92.821C118.648,92.821 92.856,118.613 92.856,150.382L92.856,296.291C92.856,321.674 109.322,343.242 132.149,350.888Z"/>
                </clipPath>
                <g clip-path="url(#_clip1)">
                    <g transform="matrix(4.07928,0,0,4.07928,52.0361,23.4889)">
                        <g transform="matrix(1.14267,0,0,1.14267,-7.13346,-8.14249)">
                            <path d="M30.861,58.034C30.48,58.479 30.392,59.105 30.637,59.637C30.882,60.169 31.415,60.51 32,60.51L68,60.5C68.586,60.5 69.118,60.159 69.363,59.627C69.608,59.094 69.52,58.469 69.139,58.024L51.139,37.024C50.854,36.691 50.438,36.5 50,36.5C49.562,36.5 49.146,36.692 48.861,37.024L30.861,58.034ZM35.261,57.509L50,40.305C50,40.305 64.739,57.501 64.739,57.501L35.261,57.509Z" style="fill:white;"/>
                        </g>
                        <g transform="matrix(1.208,0,0,1.208,-17.9507,1.31688)">
                            <circle cx="39.224" cy="48.017" r="5.676" style="fill:white;"/>
                        </g>
                        <g transform="matrix(1.208,0,0,1.208,23.1854,1.31688)">
                            <circle cx="39.224" cy="48.017" r="5.676" style="fill:white;"/>
                        </g>
                        <g transform="matrix(1.208,0,0,1.208,2.61733,-22.726)">
                            <circle cx="39.224" cy="48.017" r="5.676" style="fill:white;"/>
                        </g>
                    </g>
                </g>
            </g>
            <g transform="matrix(1,0,0,1,-181.336,-368.376)">
                <path d="M121.881,361.925C127.091,374.626 126.439,388.838 118.226,414.983C116.704,419.827 117.924,425.115 121.415,428.803C124.905,432.49 130.119,433.999 135.039,432.745C158.29,426.821 193.907,398.314 210.763,367.852C210.763,367.852 361.583,367.852 361.583,367.852C401.079,367.852 433.144,335.787 433.144,296.291C433.144,296.291 433.144,150.382 433.144,150.382C433.144,110.887 401.079,78.821 361.583,78.821C361.583,78.821 150.417,78.821 150.417,78.821C110.921,78.821 78.856,110.887 78.856,150.382L78.856,296.291C78.856,325.644 96.568,350.893 121.881,361.924L121.881,361.925ZM144.532,344.357C142.853,341.172 140.01,338.756 136.595,337.612C119.318,331.826 106.856,315.502 106.856,296.291C106.856,296.291 106.856,150.382 106.856,150.382C106.856,126.34 126.375,106.821 150.417,106.821L361.583,106.821C385.625,106.821 405.144,126.34 405.144,150.382L405.144,296.291C405.144,320.333 385.625,339.852 361.583,339.852L202.066,339.852C196.463,339.852 191.4,343.192 189.195,348.343C182.142,364.824 167.218,381.546 152.247,392.793C155.228,371.704 151.68,357.91 144.532,344.357Z" style="fill:rgb(48,48,48);"/>
            </g>
        </g>
        <g transform="matrix(0.829985,0,0,0.845589,-37.1653,-236.658)">
            <path d="M223.594,169.861L243.389,62.02L257.482,62.02L287.095,140.724L287.57,140.724L317.183,62.02L331.277,62.02L351.071,169.861L334.444,169.861L325.734,118.554C324.467,111.164 323.412,103.853 322.567,96.621C321.723,89.389 321.195,82.131 320.984,74.847L324.943,74.847C323.042,83.609 321.063,91.316 319.004,97.967C316.945,104.618 314.597,111.48 311.957,118.554L293.429,168.119L281.236,168.119L262.708,118.554C260.069,111.375 257.72,104.486 255.661,97.888C253.603,91.29 251.623,83.609 249.723,74.847L253.682,74.847C253.471,82.131 252.943,89.389 252.098,96.621C251.254,103.853 250.198,111.164 248.931,118.554L240.221,169.861L223.594,169.861Z" style="fill:rgb(48,48,48);fill-rule:nonzero;"/>
            <path d="M401.746,171.445C393.933,171.445 387.045,169.782 381.08,166.457C375.115,163.131 370.497,158.46 367.224,152.442C363.951,146.424 362.315,139.404 362.315,131.381C362.315,123.252 363.951,116.178 367.224,110.161C370.497,104.143 375.115,99.445 381.08,96.067C387.045,92.689 393.933,90.999 401.746,90.999C409.664,90.999 416.579,92.689 422.491,96.067C428.403,99.445 433.021,104.143 436.347,110.161C439.672,116.178 441.335,123.252 441.335,131.381C441.335,139.404 439.672,146.424 436.347,152.442C433.021,158.46 428.403,163.131 422.491,166.457C416.579,169.782 409.664,171.445 401.746,171.445ZM401.746,156.243C408.819,156.243 414.494,153.946 418.769,149.354C423.045,144.762 425.183,138.771 425.183,131.381C425.183,123.885 423.045,117.815 418.769,113.169C414.494,108.524 408.819,106.202 401.746,106.202C394.778,106.202 389.156,108.498 384.881,113.09C380.605,117.683 378.467,123.727 378.467,131.222C378.467,138.718 380.605,144.762 384.881,149.354C389.156,153.946 394.778,156.243 401.746,156.243Z" style="fill:rgb(48,48,48);fill-rule:nonzero;"/>
            <path d="M467.939,130.905L467.939,128.688L501.511,92.583L520.197,92.583L482.508,133.914L481.083,123.463L520.514,169.861L501.511,169.861L467.939,130.905ZM456.221,62.02L471.74,62.02L471.74,169.861L456.221,169.861L456.221,62.02Z" style="fill:rgb(48,48,48);fill-rule:nonzero;"/>
            <path d="M545.217,169.861L529.382,169.861L529.382,92.583L545.217,92.583L545.217,169.861ZM527.006,68.829C527.006,65.768 527.93,63.261 529.778,61.307C531.625,59.354 534.132,58.378 537.299,58.378C540.361,58.378 542.842,59.354 544.742,61.307C546.643,63.261 547.593,65.768 547.593,68.829C547.593,71.785 546.643,74.24 544.742,76.193C542.842,78.146 540.361,79.123 537.299,79.123C534.132,79.123 531.625,78.146 529.778,76.193C527.93,74.24 527.006,71.785 527.006,68.829Z" style="fill:rgb(48,48,48);fill-rule:nonzero;"/>
            <path d="M643.557,172.237C637.962,172.237 632.551,171.392 627.326,169.703C622.1,168.014 617.323,165.243 612.994,161.389C608.666,157.536 605.024,152.284 602.068,145.633L615.211,138.19C618.906,144.841 622.971,149.644 627.405,152.6C631.839,155.556 637.381,157.034 644.032,157.034C650.472,157.034 655.355,155.609 658.68,152.759C662.006,149.908 663.668,146.002 663.668,141.04C663.668,138.084 662.956,135.498 661.531,133.281C660.105,131.064 657.598,129.005 654.009,127.105C650.419,125.205 645.352,123.463 638.806,121.879C630.572,119.768 624.158,117.155 619.566,114.04C614.974,110.926 611.78,107.337 609.985,103.272C608.191,99.208 607.293,94.8 607.293,90.049C607.293,84.137 608.666,78.991 611.411,74.609C614.155,70.228 618.114,66.797 623.287,64.316C628.46,61.835 634.584,60.595 641.657,60.595C650.103,60.595 657.07,62.205 662.56,65.425C668.05,68.645 672.695,73.052 676.495,78.648L663.193,87.199C659.921,83.187 656.516,80.31 652.979,78.568C649.443,76.826 645.669,75.956 641.657,75.956C635.534,75.956 630.862,77.17 627.642,79.598C624.422,82.026 622.812,85.51 622.812,90.049C622.812,93.955 624.317,97.334 627.326,100.184C630.334,103.035 636.22,105.516 644.982,107.627C653.85,109.844 660.792,112.457 665.806,115.466C670.821,118.474 674.358,122.064 676.416,126.234C678.475,130.404 679.504,135.392 679.504,141.199C679.504,147.005 678.026,152.231 675.07,156.876C672.114,161.521 667.944,165.243 662.56,168.04C657.176,170.838 650.842,172.237 643.557,172.237Z" style="fill:rgb(48,48,48);fill-rule:nonzero;"/>
            <path d="M698.19,169.861L698.19,62.02L733.662,62.02C744.008,62.02 753.246,64.184 761.375,68.513C769.504,72.841 775.891,79.043 780.536,87.12C785.181,95.196 787.504,104.882 787.504,116.178C787.504,127.686 785.155,137.424 780.457,145.395C775.759,153.366 769.346,159.436 761.217,163.606C753.088,167.776 743.85,169.861 733.504,169.861L698.19,169.861ZM714.026,158.46L709.275,154.976L732.712,154.976C739.786,154.976 746.199,153.577 751.953,150.779C757.706,147.982 762.325,143.732 765.809,138.032C769.293,132.331 771.035,125.046 771.035,116.178C771.035,107.627 769.319,100.422 765.888,94.562C762.457,88.703 757.865,84.296 752.111,81.34C746.357,78.384 739.944,76.906 732.871,76.906L708.167,76.906L714.026,71.205L714.026,158.46Z" style="fill:rgb(48,48,48);fill-rule:nonzero;"/>
            <path d="M805.715,169.861L805.715,62.02L821.551,62.02L821.551,169.861L805.715,169.861ZM866.841,169.861L815.691,116.97L815.691,115.228L867.474,62.02L887.269,62.02L830.102,120.771L831.685,111.428L888.219,169.861L866.841,169.861Z" style="fill:rgb(48,48,48);fill-rule:nonzero;"/>
        </g>
    </g>
</svg>
